<?xml version="1.0" encoding="iso-8859-1"?>
<!-- Generator: Adobe Illustrator 16.0.0, SVG Export Plug-In . SVG Version: 6.00 Build 0)  -->
<!DOCTYPE svg PUBLIC "-//W3C//DTD SVG 1.1//EN" "http://www.w3.org/Graphics/SVG/1.1/DTD/svg11.dtd">
<svg xmlns="http://www.w3.org/2000/svg" xmlns:xlink="http://www.w3.org/1999/xlink" version="1.1" id="Capa_1" x="0px" y="0px" width="512px" height="512px" viewBox="0 0 348.398 348.399" style="enable-background:new 0 0 348.398 348.399;" xml:space="preserve">
<g>
	<g id="Artwork_3_">
		<g>
			<path d="M253.348,148.688c0,0-8.246-72.47-12.428-90.421c-0.397-1.708-0.91-2.069-1.326-2.618     c-6.904-9.135-38.881-15.861-65.498-15.861c-36.32,0-61.431,6.427-65.76,15.893c-0.394,0.825-0.692,1.69-0.863,2.587     l-12.57,90.387h41.575v-11.103c0-8.768,7.175-15.956,15.941-15.956h43.28c8.768,0,15.941,7.188,15.941,15.956v11.103" fill="#006DF0"/>
			<path d="M161.37,183.027h25.381c5.132,0,9.341-4.209,9.341-9.355v-26.694c0-5.146-4.209-9.356-9.341-9.356H161.37     c-5.132,0-9.341,4.209-9.341,9.356v26.694C152.029,178.818,156.238,183.027,161.37,183.027z" fill="#006DF0"/>
			<path d="M275.494,217.004c1.291,8.156,2.16,14.314,2.16,16.12c0,28.737-53.357,38.976-103.291,38.976h-0.168     c-49.935,0-103.291-10.238-103.291-38.976c0-1.807,0.871-7.979,2.166-16.153C28.838,226.131,0,241.139,0,258.1     c0,27.896,77.992,50.511,174.199,50.511s174.199-22.614,174.199-50.511C348.398,241.16,319.632,226.168,275.494,217.004z" fill="#006DF0"/>
			<path d="M257.32,169.863l-0.035-0.205H212.08v13.453c0,8.769-7.175,15.94-15.941,15.94H152.42     c-8.767,0-15.941-7.172-15.941-15.94v-13.453H91.274l-0.035,0.205c0,0-10.334,58.428-10.334,63.262     c0,17.695,41.722,28.976,93.291,28.976c0.028,0,0.056,0,0.084,0s0.056,0,0.084,0c51.569,0,93.291-11.28,93.291-28.976     C267.654,228.29,257.32,169.863,257.32,169.863z" fill="#006DF0"/>
		</g>
	</g>
</g>
<g>
</g>
<g>
</g>
<g>
</g>
<g>
</g>
<g>
</g>
<g>
</g>
<g>
</g>
<g>
</g>
<g>
</g>
<g>
</g>
<g>
</g>
<g>
</g>
<g>
</g>
<g>
</g>
<g>
</g>
</svg>
